#!OML:ASF G:\JayActor3\Patient Classification 1\Patient 1\Session 2\male.ASF
:FULLY-SPECIFIED
:DEGREES
1821
root -32.5143 16.0052 -3.17857 352.317 60.74 -9.13957
lowerback 7.17897 8.74166 -0.868754
upperback 4.58879 11.6788 -1.59321
thorax 0.963294 5.89538 -1.86474
lowerneck -9.00216 -3.52929 -2.69877
upperneck 11.7591 -5.66349 10.669
head 5.41365 -2.11715 3.36754
rclavicle -1.43125e-014 2.38542e-014
rhumerus -10.4629 32.08 -97.3196
rradius 35.3071
rwrist 3.46125
rhand -25.2523 8.66099
rfingers 7.12502
rthumb 1.26789 -21.315
lclavicle -1.43125e-014 2.38542e-014
lhumerus -59.9846 10.3176 78.7658
lradius 39.2052
lwrist 34.8982
lhand -33.3423 26.581
lfingers 7.12502
lthumb -6.54465 56.4599
rfemur -15.0143 -12.8802 15.6334
rtibia 58.4153
rfoot -20.202 -2.4503
rtoes -23.1246
lfemur -29.4005 12.7329 -22.7142
ltibia 46.2086
lfoot -17.8735 6.60607
ltoes -15.0106
1822
root -32.2638 15.9945 -3.18811 352.515 59.2871 -7.80767
lowerback 6.8091 8.70511 -0.52802
upperback 4.23681 11.6421 -1.64991
thorax 0.875472 5.87922 -2.06576
lowerneck -9.03492 -3.15072 -2.25229
upperneck 13.1212 -5.24921 10.1888
head 5.78821 -1.87365 3.18311
rclavicle -5.36719e-015 2.46493e-014
rhumerus -11.121 32.2193 -98.7247
rradius 35.661
rwrist 2.6555
rhand -25.0205 8.59097
rfingers 7.12502
rthumb 1.49178 -21.3836
lclavicle -5.36719e-015 2.46493e-014
lhumerus -58.5175 11.1506 79.5797
lradius 38.2212
lwrist 36.8373
lhand -33.9813 26.7762
lfingers 7.12502
lthumb -7.16147 56.635
rfemur -14.8511 -15.0603 14.0257
rtibia 56.7829
rfoot -22.6678 -6.00274
rtoes -21.1725
lfemur -27.1947 13.9425 -23.2639
ltibia 46.0099
lfoot -19.0309 6.82587
ltoes -11.5669
1823
root -32.0032 15.9907 -3.19166 352.191 57.863 -7.14646
lowerback 6.18405 8.64614 0.154493
upperback 3.84761 11.593 -1.57548
thorax 0.927484 5.85962 -2.27111
lowerneck -9.07567 -2.76804 -1.83057
upperneck 14.58 -4.81768 9.68563
head 6.2014 -1.62099 2.9999
rclavicle -5.54609e-014 1.51076e-014
rhumerus -11.9853 32.6239 -100.012
rradius 36.1385
rwrist 1.91129
rhand -24.6491 8.47208
rfingers 7.12502
rthumb 1.85047 -21.4996
lclavicle -5.54609e-014 1.51076e-014
lhumerus -56.7841 11.7811 80.4534
lradius 37.5041
lwrist 38.5908
lhand -34.4232 26.8473
lfingers 7.12502
lthumb -7.5881 56.6912
rfemur -14.4454 -16.7676 12.8477
rtibia 54.5903
rfoot -25.2055 -8.61685
rtoes -16.5008
lfemur -24.9892 14.9854 -23.4505
ltibia 45.7531
lfoot -20.2272 7.0881
ltoes -8.87124
1824
root -31.7368 15.9978 -3.18735 351.397 56.4391 -7.0678
lowerback 5.4141 8.57549 1.16672
upperback 3.41512 11.5344 -1.38771
thorax 1.05568 5.83768 -2.51304
lowerneck -9.14222 -2.40396 -1.4325
upperneck 16.143 -4.39662 9.15144
head 6.6619 -1.37337 2.81306
rclavicle -2.05941e-013 2.3059e-014
rhumerus -12.9553 33.3464 -101.173
rradius 36.6573
rwrist 1.3245
rhand -24.0859 8.33287
rfingers 7.12502
rthumb 2.39442 -21.6334
lclavicle -2.05941e-013 2.3059e-014
lhumerus -54.9068 12.2076 81.2697
lradius 37.1982
lwrist 39.9124
lhand -34.6998 26.7766
lfingers 7.12502
lthumb -7.85505 56.6106
rfemur -13.7545 -17.7312 12.0764
rtibia 51.9714
rfoot -27.3815 -10.3775
rtoes -11.1722
lfemur -22.7193 15.8589 -23.2606
ltibia 45.4112
lfoot -21.3716 7.38985
ltoes -6.94338
1825
root -31.4692 16.0139 -3.17535 350.294 55.0091 -7.37032
lowerback 4.60158 8.49578 2.42899
upperback 2.92807 11.4576 -1.12567
thorax 1.18476 5.80715 -2.8091
lowerneck -9.24581 -2.07566 -1.05973
upperneck 17.7933 -4.00639 8.59287
head 7.16961 -1.14155 2.62312
rclavicle -9.34288e-015 7.95139e-016
rhumerus -13.9429 34.3764 -102.222
rradius 37.1357
rwrist 0.966841
rhand -23.4211 8.25834
rfingers 7.12502
rthumb 3.03643 -21.6998
lclavicle -9.34288e-015 7.95139e-016
lhumerus -52.9918 12.4677 81.8954
lradius 37.3812
lwrist 40.6227
lhand -34.8204 26.5049
lfingers 7.12502
lthumb -7.97145 56.3346
rfemur -12.7589 -17.7224 11.5988
rtibia 49.1473
rfoot -28.987 -11.4121
rtoes -6.76876
lfemur -20.3606 16.5341 -22.7875
ltibia 44.9626
lfoot -22.388 7.74855
ltoes -5.66574
1826
root -31.2036 16.0378 -3.15611 349.024 53.5819 -7.86991
lowerback 3.81978 8.40573 3.84439
upperback 2.39134 11.3557 -0.822394
thorax 1.26526 5.76167 -3.15538
lowerneck -9.39159 -1.78912 -0.71903
upperneck 19.478 -3.6529 8.03007
head 7.71097 -0.929969 2.43635
rclavicle -1.16041e-013 -1.03368e-014
rhumerus -14.8816 35.6495 -103.151
rradius 37.5596
rwrist 0.810961
rhand -22.6812 8.25891
rfingers 7.12502
rthumb 3.75101 -21.6878
lclavicle -1.16041e-013 -1.03368e-014
lhumerus -51.0969 12.5894 82.2524
lradius 38.0706
lwrist 40.6508
lhand -34.8174 26.0333
lfingers 7.12502
lthumb -7.96858 55.8631
rfemur -11.4653 -16.6486 11.312
rtibia 46.3174
rfoot -29.8309 -12.1832
rtoes -4.4972
lfemur -17.9143 16.979 -22.1451
ltibia 44.405
lfoot -23.2142 8.20943
ltoes -4.94178
1827
root -30.942 16.0647 -3.12957 347.758 52.2096 -8.37999
lowerback 3.05562 8.29747 5.26764
upperback 1.82335 11.2146 -0.505918
thorax 1.29646 5.69112 -3.50251
lowerneck -9.57745 -1.53279 -0.40549
upperneck 21.0945 -3.31983 7.47987
head 8.25227 -0.733846 2.25702
rclavicle -9.22609e-014 -5.56597e-015
rhumerus -15.7079 37.0523 -103.914
rradius 37.957
rwrist 0.76662
rhand -21.9285 8.32678
rfingers 7.12502
rthumb 4.47784 -21.6059
lclavicle -9.22609e-014 -5.56597e-015
lhumerus -49.2035 12.5749 82.3242
lradius 39.1977
lwrist 40.0633
lhand -34.6625 25.4145
lfingers 7.12502
lthumb -7.81904 55.25
rfemur -9.9348 -14.6521 11.1186
rtibia 43.67
rfoot -30.1502 -13.0346
rtoes -4.30202
lfemur -15.4506 17.1387 -21.4928
ltibia 43.7795
lfoot -23.8194 8.80172
ltoes -4.6595
